<svg width="200" height="200" viewBox="0 0 100 100" xmlns="http://www.w3.org/2000/svg"
     aria-labelledby="logoTitle logoDesc">
    <title id="logoTitle">hashIsh.js Shield Logo</title>
    <desc id="logoDesc">A logo featuring a stylized hash symbol inside a modern security shield.</desc>

    <defs>
        <!-- Define the green gradient used in the landing page -->
        <linearGradient id="logoGradient" x1="0%" y1="0%" x2="100%" y2="100%">
            <stop offset="0%" style="stop-color:#4ade80; stop-opacity:1"/>
            <stop offset="100%" style="stop-color:#22c55e; stop-opacity:1"/>
        </linearGradient>
        <!-- A slightly darker gradient for the shield border -->
        <linearGradient id="borderGradient" x1="0%" y1="0%" x2="100%" y2="100%">
            <stop offset="0%" style="stop-color:#22c55e; stop-opacity:1"/>
            <stop offset="100%" style="stop-color:#16a34a; stop-opacity:1"/>
        </linearGradient>
        <!-- Add a subtle drop shadow for depth -->
        <filter id="dropShadow" x="-20%" y="-20%" width="140%" height="140%">
            <feGaussianBlur in="SourceAlpha" stdDeviation="2.5"/>
            <feOffset dx="2" dy="3" result="offsetblur"/>
            <feFlood flood-color="#000" flood-opacity="0.3"/>
            <feComposite in2="offsetblur" operator="in"/>
            <feMerge>
                <feMergeNode/>
                <feMergeNode in="SourceGraphic"/>
            </feMerge>
        </filter>
    </defs>

    <!-- Main logo group with drop shadow -->
    <g filter="url(#dropShadow)">
        <!-- The shield shape, adapted from the reference SVG -->
        <path d="M87.1,46.3 C87.1,66.7 72.3,85.8 52.1,91.4 C50.7,91.8 49.3,91.8 47.9,91.4 C27.7,85.8 12.9,66.7 12.9,46.3 V28 C12.9,24.6 15.5,20.7 18.7,19.5 L41.9,10 C47.1,7.8 52.9,7.8 58.1,10 L81.3,19.5 C84.5,20.7 87.1,24.6 87.1,28 V46.3 Z"
              fill="url(#logoGradient)"
              stroke="url(#borderGradient)"
              stroke-width="4"/>

        <!-- The stylized hash symbol inside the shield, skewed for an italic look -->
        <g transform="translate(50 50) skewX(-10) translate(-50 -50)">
            <g stroke="#F9FAFB" stroke-width="7" stroke-linecap="round">
                <!-- Vertical Lines -->
                <path d="M38 28 L38 72"/>
                <path d="M62 28 L62 72"/>
                <!-- Horizontal Lines with increased spacing -->
                <path d="M32 42 L68 42"/>
                <path d="M32 58 L68 58"/>
            </g>
        </g>
    </g>
</svg>
